<?xml version="1.0" encoding="UTF-8"?><svg id="Ebene_1" xmlns="http://www.w3.org/2000/svg" xmlns:xlink="http://www.w3.org/1999/xlink" viewBox="0 0 700 156.446866425127155"><defs><style>.cls-1{clip-path:url(#clippath);}.cls-2{fill:none;}.cls-2,.cls-3,.cls-4,.cls-5{stroke-width:0px;}.cls-6{fill:#fffbf4;stroke:#e0dcd9;stroke-miterlimit:10;stroke-width:1.749999046325684px;}.cls-7{isolation:isolate;}.cls-4{fill:#1d1d1b;}.cls-5{fill:#e94d4b;}</style><clipPath id="clippath"><rect class="cls-2" x="228.018924538091596" y="4.923854655892683" width="243.962489563402414" height="90.556713577551818"/></clipPath></defs><rect class="cls-6" x="-11.638963888959097" y="141.117166062818342" width="31.446866425126245" height="31.446866425127155" transform="translate(-152.756129951777893 160.925068598985973) rotate(-90.000000000000014)"/><rect class="cls-6" x="19.807902536168058" y="141.117166062818342" width="31.446866425126245" height="31.446866425127155" transform="translate(-121.309263526650739 192.371935024113128) rotate(-90.000000000000014)"/><rect class="cls-6" x="-11.638963888959552" y="109.670299637691642" width="31.446866425127155" height="31.446866425127155" transform="translate(-121.309263526651193 129.478202173859273) rotate(-90.000000000000014)"/><rect class="cls-6" x="-11.638963888959552" y="78.223433212564487" width="31.446866425127155" height="31.446866425127155" transform="translate(-89.862397101524039 98.031335748732104) rotate(-90.000000000000014)"/><rect class="cls-6" x="19.807902536167603" y="109.670299637691642" width="31.446866425127155" height="31.446866425127155" transform="translate(-89.862397101524039 160.925068598986428) rotate(-90.000000000000014)"/><rect class="cls-6" x="19.807902536167603" y="78.223433212564487" width="31.446866425127155" height="31.446866425127155" transform="translate(-58.415530676396884 129.478202173859245) rotate(-90.000000000000014)"/><rect class="cls-6" x="51.254768961295213" y="141.117166062818342" width="31.446866425126245" height="31.446866425127155" transform="translate(-89.862397101523584 223.818801449240283) rotate(-90.000000000000014)"/><rect class="cls-6" x="82.701635386422367" y="141.117166062818342" width="31.446866425126245" height="31.446866425127155" transform="translate(-58.415530676396401 255.265667874367438) rotate(-90.000000000000014)"/><rect class="cls-6" x="51.254768961294758" y="109.670299637691642" width="31.446866425127155" height="31.446866425127155" transform="translate(-58.41553067639687 192.371935024113583) rotate(-90.000000000000014)"/><rect class="cls-6" x="51.254768961294758" y="78.223433212564487" width="31.446866425127155" height="31.446866425127155" transform="translate(-26.968664251269715 160.9250685989864) rotate(-90.000000000000014)"/><rect class="cls-6" x="82.701635386421913" y="109.670299637691642" width="31.446866425127155" height="31.446866425127155" transform="translate(-26.968664251269715 223.818801449240738) rotate(-90.000000000000014)"/><rect class="cls-6" x="82.701635386421913" y="78.223433212564487" width="31.446866425127155" height="31.446866425127155" transform="translate(4.47820217385744 192.371935024113554) rotate(-90.000000000000014)"/><rect class="cls-6" x="114.148501811549522" y="141.117166062818342" width="31.446866425126245" height="31.446866425127155" transform="translate(-26.968664251269246 286.712534299494564) rotate(-90.000000000000014)"/><rect class="cls-6" x="145.595368236675768" y="141.117166062819251" width="31.446866425126245" height="31.446866425125336" transform="translate(4.478202173856999 318.159400724620809) rotate(-90.000000000000014)"/><rect class="cls-6" x="114.148501811549067" y="109.670299637691642" width="31.446866425127155" height="31.446866425127155" transform="translate(4.478202173857454 255.265667874367892) rotate(-90.000000000000014)"/><rect class="cls-6" x="114.148501811549067" y="78.223433212564487" width="31.446866425127155" height="31.446866425127155" transform="translate(35.925068598984609 223.818801449240738) rotate(-90.000000000000014)"/><rect class="cls-6" x="145.595368236675313" y="109.670299637692551" width="31.446866425127155" height="31.446866425125336" transform="translate(35.9250685989837 286.712534299494109) rotate(-90.000000000000014)"/><rect class="cls-6" x="145.595368236675313" y="78.223433212565396" width="31.446866425127155" height="31.446866425125336" transform="translate(67.371935024110854 255.265667874366983) rotate(-90.000000000000014)"/><rect class="cls-6" x="177.042234661802013" y="141.117166062818342" width="31.446866425126245" height="31.446866425127155" transform="translate(35.925068598983245 349.606267149747055) rotate(-90.000000000000014)"/><rect class="cls-6" x="208.489101086930077" y="141.117166062817432" width="31.446866425126245" height="31.446866425128974" transform="translate(67.371935024111309 381.053133574875119) rotate(-90.000000000000014)"/><rect class="cls-6" x="177.042234661801558" y="109.670299637691642" width="31.446866425127155" height="31.446866425127155" transform="translate(67.371935024109945 318.159400724620355) rotate(-90.000000000000014)"/><rect class="cls-6" x="177.042234661801558" y="78.223433212564487" width="31.446866425127155" height="31.446866425127155" transform="translate(98.8188014492371 286.7125342994932) rotate(-90.000000000000014)"/><rect class="cls-6" x="208.489101086929622" y="109.670299637690732" width="31.446866425127155" height="31.446866425128974" transform="translate(98.818801449238023 349.606267149748419) rotate(-90.000000000000014)"/><rect class="cls-6" x="208.489101086929622" y="78.223433212563577" width="31.446866425127155" height="31.446866425128974" transform="translate(130.265667874365192 318.159400724621264) rotate(-90.000000000000014)"/><rect class="cls-6" x="-11.638963888959097" y="46.776566787437787" width="31.446866425126245" height="31.446866425127155" transform="translate(-58.415530676397339 66.584469323605404) rotate(-90.000000000000014)"/><rect class="cls-6" x="-11.638963888959552" y="15.329700362311087" width="31.446866425127155" height="31.446866425127155" transform="translate(-26.968664251270638 35.137602898478697) rotate(-90.000000000000014)"/><rect class="cls-6" x="19.807902536168058" y="46.776566787437787" width="31.446866425126245" height="31.446866425127155" transform="translate(-26.968664251270177 98.031335748732559) rotate(-90.000000000000014)"/><rect class="cls-6" x="19.807902536167603" y="15.329700362311087" width="31.446866425127155" height="31.446866425127155" transform="translate(4.478202173856523 66.584469323605845) rotate(-90.000000000000014)"/><rect class="cls-6" x="-11.638963888959552" y="-16.117166062816068" width="31.446866425127155" height="31.446866425127155" transform="translate(4.478202173856517 3.690736473351535) rotate(-90.000000000000014)"/><rect class="cls-6" x="19.807902536167603" y="-16.117166062816068" width="31.446866425127155" height="31.446866425127155" transform="translate(35.925068598983678 35.13760289847869) rotate(-90.000000000000014)"/><rect class="cls-6" x="51.254768961295213" y="46.776566787437787" width="31.446866425126245" height="31.446866425127155" transform="translate(4.478202173856985 129.4782021738597) rotate(-90.000000000000014)"/><rect class="cls-6" x="51.254768961294758" y="15.329700362311087" width="31.446866425127155" height="31.446866425127155" transform="translate(35.925068598983685 98.031335748732999) rotate(-90.000000000000014)"/><rect class="cls-6" x="82.701635386422367" y="46.776566787437787" width="31.446866425126245" height="31.446866425127155" transform="translate(35.925068598984147 160.925068598986854) rotate(-90.000000000000014)"/><rect class="cls-6" x="82.701635386421913" y="15.329700362311087" width="31.446866425127155" height="31.446866425127155" transform="translate(67.37193502411084 129.478202173860154) rotate(-90.000000000000014)"/><rect class="cls-6" x="51.254768961294758" y="-16.117166062816068" width="31.446866425127155" height="31.446866425127155" transform="translate(67.37193502411084 66.584469323605845) rotate(-90.000000000000014)"/><rect class="cls-6" x="82.701635386421913" y="-16.117166062816068" width="31.446866425127155" height="31.446866425127155" transform="translate(98.818801449237995 98.031335748732999) rotate(-90.000000000000014)"/><rect class="cls-6" x="114.148501811549522" y="46.776566787437787" width="31.446866425126245" height="31.446866425127155" transform="translate(67.371935024111309 192.371935024114009) rotate(-90.000000000000014)"/><rect class="cls-6" x="114.148501811549067" y="15.329700362311087" width="31.446866425127155" height="31.446866425127155" transform="translate(98.818801449238009 160.925068598987309) rotate(-90.000000000000014)"/><rect class="cls-6" x="145.595368236675768" y="46.776566787438696" width="31.446866425126245" height="31.446866425125336" transform="translate(98.818801449237554 223.818801449240254) rotate(-90.000000000000014)"/><rect class="cls-6" x="145.595368236675313" y="15.329700362311996" width="31.446866425127155" height="31.446866425125336" transform="translate(130.265667874364254 192.371935024113554) rotate(-90.000000000000014)"/><rect class="cls-6" x="114.148501811549067" y="-16.117166062816068" width="31.446866425127155" height="31.446866425127155" transform="translate(130.265667874365164 129.478202173860154) rotate(-90.000000000000014)"/><rect class="cls-6" x="145.595368236675313" y="-16.117166062815159" width="31.446866425127155" height="31.446866425125336" transform="translate(161.712534299491409 160.9250685989864) rotate(-90.000000000000014)"/><rect class="cls-6" x="177.042234661802013" y="46.776566787437787" width="31.446866425126245" height="31.446866425127155" transform="translate(130.2656678743638 255.2656678743665) rotate(-90.000000000000014)"/><rect class="cls-6" x="177.042234661801558" y="15.329700362311087" width="31.446866425127155" height="31.446866425127155" transform="translate(161.7125342994905 223.8188014492398) rotate(-90.000000000000014)"/><rect class="cls-6" x="208.489101086930077" y="46.776566787436877" width="31.446866425126245" height="31.446866425128974" transform="translate(161.712534299491892 286.712534299494564) rotate(-90.000000000000014)"/><rect class="cls-6" x="208.489101086929622" y="15.329700362310177" width="31.446866425127155" height="31.446866425128974" transform="translate(193.159400724618592 255.265667874367864) rotate(-90.000000000000014)"/><rect class="cls-6" x="177.042234661801558" y="-16.117166062816068" width="31.446866425127155" height="31.446866425127155" transform="translate(193.159400724617655 192.371935024112645) rotate(-90.000000000000014)"/><rect class="cls-6" x="208.489101086929622" y="-16.117166062816978" width="31.446866425127155" height="31.446866425128974" transform="translate(224.606267149745719 223.818801449240709) rotate(-90.000000000000014)"/><rect class="cls-6" x="239.935967512058141" y="141.117166062817432" width="31.446866425126245" height="31.446866425127155" transform="translate(98.818801449240311 412.500000000002274) rotate(-90.000000000000014)"/><rect class="cls-6" x="271.382833937184387" y="141.117166062818342" width="31.446866425126245" height="31.446866425125336" transform="translate(130.265667874366557 443.946866425128576) rotate(-90.000000000000014)"/><rect class="cls-6" x="239.935967512057687" y="109.670299637690732" width="31.446866425127155" height="31.446866425127155" transform="translate(130.265667874367011 381.053133574875574) rotate(-90.000000000000014)"/><rect class="cls-6" x="239.935967512057687" y="78.223433212563577" width="31.446866425127155" height="31.446866425127155" transform="translate(161.712534299494166 349.606267149748419) rotate(-90.000000000000014)"/><rect class="cls-6" x="271.382833937183932" y="109.670299637691642" width="31.446866425127155" height="31.446866425125336" transform="translate(161.712534299493257 412.500000000001819) rotate(-90.000000000000014)"/><rect class="cls-6" x="271.382833937183932" y="78.223433212564487" width="31.446866425127155" height="31.446866425125336" transform="translate(193.159400724620411 381.053133574874664) rotate(-90.000000000000014)"/><rect class="cls-6" x="302.829700362310632" y="141.117166062817432" width="31.446866425126245" height="31.446866425127155" transform="translate(161.712534299492802 475.393732850254821) rotate(-90.000000000000014)"/><rect class="cls-6" x="334.276566787437787" y="141.117166062817432" width="31.446866425126245" height="31.446866425127155" transform="translate(193.159400724619957 506.840599275381976) rotate(-90.000000000000014)"/><rect class="cls-6" x="302.829700362310177" y="109.670299637690732" width="31.446866425127155" height="31.446866425127155" transform="translate(193.159400724619502 443.946866425128064) rotate(-90.000000000000014)"/><rect class="cls-6" x="302.829700362310177" y="78.223433212563577" width="31.446866425127155" height="31.446866425127155" transform="translate(224.606267149746657 412.500000000000909) rotate(-90.000000000000014)"/><rect class="cls-6" x="334.276566787437332" y="109.670299637690732" width="31.446866425127155" height="31.446866425127155" transform="translate(224.606267149746657 475.393732850255219) rotate(-90.000000000000014)"/><rect class="cls-6" x="334.276566787437332" y="78.223433212563577" width="31.446866425127155" height="31.446866425127155" transform="translate(256.053133574873812 443.946866425128064) rotate(-90.000000000000014)"/><rect class="cls-6" x="365.723433212564942" y="141.117166062817432" width="31.446866425126245" height="31.446866425127155" transform="translate(224.606267149747111 538.287465700509074) rotate(-90.000000000000014)"/><rect class="cls-6" x="397.170299637692096" y="141.117166062817432" width="31.446866425126245" height="31.446866425127155" transform="translate(256.053133574874323 569.734332125636229) rotate(-90.000000000000014)"/><rect class="cls-6" x="365.723433212564487" y="109.670299637690732" width="31.446866425127155" height="31.446866425127155" transform="translate(256.053133574873812 506.840599275382374) rotate(-90.000000000000014)"/><rect class="cls-6" x="365.723433212564487" y="78.223433212563577" width="31.446866425127155" height="31.446866425127155" transform="translate(287.500000000000966 475.393732850255219) rotate(-90.000000000000014)"/><rect class="cls-6" x="397.170299637691642" y="109.670299637690732" width="31.446866425127155" height="31.446866425127155" transform="translate(287.500000000000966 538.287465700509529) rotate(-90.000000000000014)"/><rect class="cls-6" x="397.170299637691642" y="78.223433212563577" width="31.446866425127155" height="31.446866425127155" transform="translate(318.946866425128121 506.840599275382374) rotate(-90.000000000000014)"/><rect class="cls-6" x="428.617166062819251" y="141.117166062817432" width="31.446866425126245" height="31.446866425127155" transform="translate(287.500000000001478 601.181198550763384) rotate(-90.000000000000014)"/><rect class="cls-6" x="460.064032487945497" y="141.117166062818342" width="31.446866425126245" height="31.446866425125336" transform="translate(318.946866425127723 632.628064975889629) rotate(-90.000000000000014)"/><rect class="cls-6" x="428.617166062818796" y="109.670299637690732" width="31.446866425127155" height="31.446866425127155" transform="translate(318.946866425128178 569.734332125636683) rotate(-90.000000000000014)"/><rect class="cls-6" x="428.617166062818796" y="78.223433212563577" width="31.446866425127155" height="31.446866425127155" transform="translate(350.393732850255333 538.287465700509529) rotate(-90.000000000000014)"/><rect class="cls-6" x="460.064032487945042" y="109.670299637691642" width="31.446866425127155" height="31.446866425125336" transform="translate(350.393732850254423 601.181198550762929) rotate(-90.000000000000014)"/><rect class="cls-6" x="460.064032487945042" y="78.223433212564487" width="31.446866425127155" height="31.446866425125336" transform="translate(381.840599275381578 569.734332125635774) rotate(-90.000000000000014)"/><rect class="cls-6" x="239.935967512058141" y="46.776566787436877" width="31.446866425126245" height="31.446866425127155" transform="translate(193.159400724620866 318.159400724621719) rotate(-90.000000000000014)"/><rect class="cls-6" x="239.935967512057687" y="15.329700362310177" width="31.446866425127155" height="31.446866425127155" transform="translate(224.606267149747566 286.712534299495019) rotate(-90.000000000000014)"/><rect class="cls-6" x="271.382833937184387" y="46.776566787437787" width="31.446866425126245" height="31.446866425125336" transform="translate(224.606267149747111 349.606267149747964) rotate(-90.000000000000014)"/><rect class="cls-6" x="271.382833937183932" y="15.329700362311087" width="31.446866425127155" height="31.446866425125336" transform="translate(256.053133574873812 318.159400724621264) rotate(-90.000000000000014)"/><rect class="cls-6" x="239.935967512057232" y="-16.117166062817432" width="31.446866425128064" height="31.446866425127155" transform="translate(256.053133574875176 255.265667874367409) rotate(-90.000000000000014)"/><rect class="cls-6" x="271.382833937183477" y="-16.117166062816523" width="31.446866425128064" height="31.446866425125336" transform="translate(287.500000000001421 286.712534299493655) rotate(-90.000000000000014)"/><rect class="cls-6" x="302.829700362310632" y="46.776566787436877" width="31.446866425126245" height="31.446866425127155" transform="translate(256.053133574873357 381.053133574874209) rotate(-90.000000000000014)"/><rect class="cls-6" x="302.829700362310177" y="15.329700362310177" width="31.446866425127155" height="31.446866425127155" transform="translate(287.500000000000057 349.606267149747509) rotate(-90.000000000000014)"/><rect class="cls-6" x="334.276566787437787" y="46.776566787436877" width="31.446866425126245" height="31.446866425127155" transform="translate(287.500000000000512 412.500000000001364) rotate(-90.000000000000014)"/><rect class="cls-6" x="334.276566787437332" y="15.329700362310177" width="31.446866425127155" height="31.446866425127155" transform="translate(318.946866425127212 381.053133574874664) rotate(-90.000000000000014)"/><rect class="cls-6" x="302.829700362309723" y="-16.117166062817432" width="31.446866425128064" height="31.446866425127155" transform="translate(318.946866425127666 318.1594007246199) rotate(-90.000000000000014)"/><rect class="cls-6" x="334.276566787436877" y="-16.117166062817432" width="31.446866425128064" height="31.446866425127155" transform="translate(350.393732850254821 349.606267149747055) rotate(-90.000000000000014)"/><rect class="cls-6" x="365.723433212564942" y="46.776566787436877" width="31.446866425126245" height="31.446866425127155" transform="translate(318.946866425127666 443.946866425128519) rotate(-90.000000000000014)"/><rect class="cls-6" x="365.723433212564487" y="15.329700362310177" width="31.446866425127155" height="31.446866425127155" transform="translate(350.393732850254366 412.500000000001819) rotate(-90.000000000000014)"/><rect class="cls-6" x="397.170299637692096" y="46.776566787436877" width="31.446866425126245" height="31.446866425127155" transform="translate(350.393732850254821 475.393732850255674) rotate(-90.000000000000014)"/><rect class="cls-6" x="397.170299637691642" y="15.329700362310177" width="31.446866425127155" height="31.446866425127155" transform="translate(381.840599275381521 443.946866425128974) rotate(-90.000000000000014)"/><rect class="cls-6" x="365.723433212564032" y="-16.117166062817432" width="31.446866425128064" height="31.446866425127155" transform="translate(381.840599275381976 381.053133574874209) rotate(-90.000000000000014)"/><rect class="cls-6" x="397.170299637691187" y="-16.117166062817432" width="31.446866425128064" height="31.446866425127155" transform="translate(413.287465700509131 412.500000000001364) rotate(-90.000000000000014)"/><rect class="cls-6" x="428.617166062819251" y="46.776566787436877" width="31.446866425126245" height="31.446866425127155" transform="translate(381.840599275381976 506.840599275382829) rotate(-90.000000000000014)"/><rect class="cls-6" x="428.617166062818796" y="15.329700362310177" width="31.446866425127155" height="31.446866425127155" transform="translate(413.287465700508676 475.393732850256129) rotate(-90.000000000000014)"/><rect class="cls-6" x="460.064032487945497" y="46.776566787437787" width="31.446866425126245" height="31.446866425125336" transform="translate(413.287465700508278 538.287465700509074) rotate(-90.000000000000014)"/><rect class="cls-6" x="460.064032487945042" y="15.329700362311087" width="31.446866425127155" height="31.446866425125336" transform="translate(444.734332125634978 506.840599275382374) rotate(-90.000000000000014)"/><rect class="cls-6" x="428.617166062818342" y="-16.117166062817432" width="31.446866425128064" height="31.446866425127155" transform="translate(444.734332125636286 443.946866425128519) rotate(-90.000000000000014)"/><rect class="cls-6" x="460.064032487944587" y="-16.117166062816523" width="31.446866425128064" height="31.446866425125336" transform="translate(476.181198550762588 475.393732850254764) rotate(-90.000000000000014)"/><rect class="cls-6" x="491.510898913073561" y="141.117166062817432" width="31.446866425126245" height="31.446866425127155" transform="translate(350.393732850255788 664.074931401017693) rotate(-90.000000000000014)"/><rect class="cls-6" x="491.510898913073106" y="109.670299637690732" width="31.446866425127155" height="31.446866425127155" transform="translate(381.840599275382488 632.628064975890993) rotate(-90.000000000000014)"/><rect class="cls-6" x="491.510898913073106" y="78.223433212563577" width="31.446866425127155" height="31.446866425127155" transform="translate(413.287465700509642 601.181198550763838) rotate(-90.000000000000014)"/><rect class="cls-6" x="522.957765338200716" y="141.117166062817432" width="31.446866425126245" height="31.446866425127155" transform="translate(381.840599275382942 695.521797826144848) rotate(-90.000000000000014)"/><rect class="cls-6" x="554.40463176332787" y="141.117166062817432" width="31.446866425126245" height="31.446866425127155" transform="translate(413.287465700510097 726.968664251272003) rotate(-90.000000000000014)"/><rect class="cls-6" x="522.957765338200261" y="109.670299637690732" width="31.446866425127155" height="31.446866425127155" transform="translate(413.287465700509642 664.074931401018148) rotate(-90.000000000000014)"/><rect class="cls-6" x="522.957765338200261" y="78.223433212563577" width="31.446866425127155" height="31.446866425127155" transform="translate(444.734332125636797 632.628064975890993) rotate(-90.000000000000014)"/><rect class="cls-6" x="554.404631763327416" y="109.670299637690732" width="31.446866425127155" height="31.446866425127155" transform="translate(444.734332125636797 695.521797826145303) rotate(-90.000000000000014)"/><rect class="cls-6" x="554.404631763327416" y="78.223433212563577" width="31.446866425127155" height="31.446866425127155" transform="translate(476.181198550763952 664.074931401018148) rotate(-90.000000000000014)"/><rect class="cls-6" x="585.851498188455025" y="141.117166062817432" width="31.446866425126245" height="31.446866425127155" transform="translate(444.734332125637252 758.415530676399158) rotate(-90.000000000000014)"/><rect class="cls-6" x="617.298364613581271" y="141.117166062818342" width="31.446866425126245" height="31.446866425125336" transform="translate(476.181198550763497 789.862397101525403) rotate(-90.000000000000014)"/><rect class="cls-6" x="585.85149818845457" y="109.670299637690732" width="31.446866425127155" height="31.446866425127155" transform="translate(476.181198550763952 726.968664251272457) rotate(-90.000000000000014)"/><rect class="cls-6" x="585.85149818845457" y="78.223433212563577" width="31.446866425127155" height="31.446866425127155" transform="translate(507.628064975891107 695.521797826145303) rotate(-90.000000000000014)"/><rect class="cls-6" x="617.298364613580816" y="109.670299637691642" width="31.446866425127155" height="31.446866425125336" transform="translate(507.628064975890197 758.415530676398703) rotate(-90.000000000000014)"/><rect class="cls-6" x="617.298364613580816" y="78.223433212564487" width="31.446866425127155" height="31.446866425125336" transform="translate(539.074931401017352 726.968664251271548) rotate(-90.000000000000014)"/><rect class="cls-6" x="491.510898913073561" y="46.776566787436877" width="31.446866425126245" height="31.446866425127155" transform="translate(444.734332125636342 569.734332125637138) rotate(-90.000000000000014)"/><rect class="cls-6" x="491.510898913073106" y="15.329700362310177" width="31.446866425127155" height="31.446866425127155" transform="translate(476.181198550763042 538.287465700510438) rotate(-90.000000000000014)"/><rect class="cls-6" x="491.510898913072651" y="-16.117166062817432" width="31.446866425128064" height="31.446866425127155" transform="translate(507.628064975890652 506.840599275382829) rotate(-90.000000000000014)"/><rect class="cls-6" x="522.957765338200716" y="46.776566787436877" width="31.446866425126245" height="31.446866425127155" transform="translate(476.181198550763497 601.181198550764293) rotate(-90.000000000000014)"/><rect class="cls-6" x="522.957765338200261" y="15.329700362310177" width="31.446866425127155" height="31.446866425127155" transform="translate(507.628064975890197 569.734332125637593) rotate(-90.000000000000014)"/><rect class="cls-6" x="554.40463176332787" y="46.776566787436877" width="31.446866425126245" height="31.446866425127155" transform="translate(507.628064975890652 632.628064975891448) rotate(-90.000000000000014)"/><rect class="cls-6" x="554.404631763327416" y="15.329700362310177" width="31.446866425127155" height="31.446866425127155" transform="translate(539.074931401017352 601.181198550764748) rotate(-90.000000000000014)"/><rect class="cls-6" x="522.957765338199806" y="-16.117166062817432" width="31.446866425128064" height="31.446866425127155" transform="translate(539.074931401017807 538.287465700509983) rotate(-90.000000000000014)"/><rect class="cls-6" x="554.404631763326961" y="-16.117166062817432" width="31.446866425128064" height="31.446866425127155" transform="translate(570.521797826144962 569.734332125637138) rotate(-90.000000000000014)"/><rect class="cls-6" x="585.851498188455025" y="46.776566787436877" width="31.446866425126245" height="31.446866425127155" transform="translate(539.074931401017807 664.074931401018603) rotate(-90.000000000000014)"/><rect class="cls-6" x="585.85149818845457" y="15.329700362310177" width="31.446866425127155" height="31.446866425127155" transform="translate(570.521797826144507 632.628064975891903) rotate(-90.000000000000014)"/><rect class="cls-6" x="617.298364613581271" y="46.776566787437787" width="31.446866425126245" height="31.446866425125336" transform="translate(570.521797826144052 695.521797826144848) rotate(-90.000000000000014)"/><rect class="cls-6" x="617.298364613580816" y="15.329700362311087" width="31.446866425127155" height="31.446866425125336" transform="translate(601.968664251270752 664.074931401018148) rotate(-90.000000000000014)"/><rect class="cls-6" x="585.851498188454116" y="-16.117166062817432" width="31.446866425128064" height="31.446866425127155" transform="translate(601.968664251272116 601.181198550764293) rotate(-90.000000000000014)"/><rect class="cls-6" x="617.298364613580361" y="-16.117166062816523" width="31.446866425128064" height="31.446866425125336" transform="translate(633.415530676398362 632.628064975890538) rotate(-90.000000000000014)"/><rect class="cls-6" x="648.745231038707516" y="141.117166062817432" width="31.446866425126245" height="31.446866425127155" transform="translate(507.628064975889743 821.309263526651648) rotate(-90.000000000000014)"/><rect class="cls-6" x="680.192097463833761" y="141.117166062818342" width="31.446866425126245" height="31.446866425125336" transform="translate(539.074931401015988 852.756129951777893) rotate(-90.000000000000014)"/><rect class="cls-6" x="648.745231038707061" y="109.670299637690732" width="31.446866425127155" height="31.446866425127155" transform="translate(539.074931401016443 789.862397101524948) rotate(-90.000000000000014)"/><rect class="cls-6" x="648.745231038707061" y="78.223433212563577" width="31.446866425127155" height="31.446866425127155" transform="translate(570.521797826143597 758.415530676397793) rotate(-90.000000000000014)"/><rect class="cls-6" x="680.192097463833306" y="109.670299637691642" width="31.446866425127155" height="31.446866425125336" transform="translate(570.521797826142688 821.309263526651193) rotate(-90.000000000000014)"/><rect class="cls-6" x="680.192097463833306" y="78.223433212564487" width="31.446866425127155" height="31.446866425125336" transform="translate(601.968664251269843 789.862397101524039) rotate(-90.000000000000014)"/><rect class="cls-6" x="648.745231038707516" y="46.776566787436877" width="31.446866425126245" height="31.446866425127155" transform="translate(601.968664251270297 726.968664251271093) rotate(-90.000000000000014)"/><rect class="cls-6" x="648.745231038707061" y="15.329700362310177" width="31.446866425127155" height="31.446866425127155" transform="translate(633.415530676396997 695.521797826144393) rotate(-90.000000000000014)"/><rect class="cls-6" x="680.192097463833761" y="46.776566787437787" width="31.446866425126245" height="31.446866425125336" transform="translate(633.415530676396543 758.415530676397339) rotate(-90.000000000000014)"/><rect class="cls-6" x="680.192097463833306" y="15.329700362311087" width="31.446866425127155" height="31.446866425125336" transform="translate(664.862397101523243 726.968664251270638) rotate(-90.000000000000014)"/><rect class="cls-6" x="648.745231038706606" y="-16.117166062817432" width="31.446866425128064" height="31.446866425127155" transform="translate(664.862397101524607 664.074931401016784) rotate(-90.000000000000014)"/><rect class="cls-6" x="680.192097463832852" y="-16.117166062816523" width="31.446866425128064" height="31.446866425125336" transform="translate(696.309263526650852 695.521797826143029) rotate(-90.000000000000014)"/><g class="cls-7"><g class="cls-1"><path class="cls-3" d="m264.709936358542109,57.007480684147595c0,5.598975400139352-1.739498165192344,10.005165463816411-5.216470798104638,13.226010179449986-3.476297207766038,3.220169290489139-8.23322884600384,4.830594226265021-14.262683368087892,4.830594226265021-4.158174982003402,0-7.792608035066223-.952875356514596-10.90262244506539-2.853887781701815-2.315278765719086-1.414443369770197-4.160202707536882-3.236389805778344-5.533420975164518-5.46448845773557-.825823166051123-1.338079081167962-.487924981060132-3.093797761648602.707558752967088-4.114927149122195,1.457692974998281-1.243462845925933,3.616862170852983-.929220008724769,4.756930832625585.609568614455384.860964688787135,1.164396856746862,1.930074396576856,2.156467495278775,3.207329123368254,2.977557609966425,2.323387734384596,1.496891640586,5.005623434035442,2.244319167246431,8.049411377487559,2.244319167246431,3.804057570701843,0,6.787021159779215-.979902674106597,8.946192933593011-2.935655471455902,2.159169195854702-1.95643337841102,3.239091506354271-4.715034655644558,3.239091506354271-8.273102131124688,0-2.880244830066658-.998152042786387-5.388124169133334-2.993778125255631-7.518234616047266-1.998330361004264-2.133487572633385-5.348253461971581-4.353475966946462-10.047065024368749-6.666054321068259-5.569914073238579-2.742380761944332-9.447632942989003-5.419214349423783-11.636537601908458-8.027783594108769-2.185525599730681-2.607898975459648-3.278288238473579-5.907809680271384-3.278288238473579-9.901768701703986,0-4.646100043624756,1.57325383459829-8.397447384533734,4.725168127394682-11.247952884597908,3.151914615041278-2.853892937619094,7.322929119675791-4.279143109692995,12.512370022227515-4.279143109692995,3.152590684675488,0,5.92403019556059.617673716182253,8.312970260328257,1.853031460381317,1.452287801499551.7494589580092,2.766711534877686,1.725984506396344,3.946650903812042,2.932958926797255,1.290770963545583,1.314418577460856,1.261712214603904,3.43641876673064-.087176246825038,4.693400427369852l-.008110257644148.008110257644148c-1.264413915181649,1.177240246316615-3.183000283903311,1.111012490790017-4.463634714374166-.047980964805902-.617678872099532-.556854517723878-1.317128011912246-1.040046447420536-2.096321144005742-1.451612376356024-1.752338976803003-.923811451656547-3.729719557531098-1.386054890056585-5.9287607495271-1.386054890056585-3.072846692392886,0-5.490845506101323.773784575025275-7.253999019083494,2.323390312342781-1.766531283190488,1.549600581400227-2.650473316664829,3.639835165235127-2.650473316664829,6.274766614203145,0,2.391644343301778.673093380426508,4.402812937957606,2.016576507235186,6.031479508536904,1.346186760853016,1.632054008133309,4.002066701118565,3.518872193462812,7.969666096226319,5.665203155665949l.366958222911308.163540535426364c11.736554660344154,6.30450594420563,17.605171636555497,13.080716434744318,17.605171636555497,20.337417154402829l-.002704278533201-.002701700575926Z"/><path class="cls-3" d="m306.973566530765311,54.196170466100739c0-4.102088915469722-1.35970299760811-7.491877567681513-4.075726711187599-10.168711155160054-2.719405995216221-2.676828431561262-6.072030796760373-4.014907512728314-10.065989818191156-4.014907512728314-4.023012614456093,0-7.378344272492541,1.338079081167052-10.068010937706276,4.014907512728314-2.690347246274541,2.676833587478541-4.033829728594355,6.066622239690332-4.033829728594355,10.168711155160054,0,4.129111077144444,1.365106398759963,7.579053814504732,4.094648927051821,10.351168750534271,2.732244228867785,2.771444666803291,6.065946814545896,4.157499556858966,10.00719173924881,4.157499556858966,4.020316069796536,0,7.381051128984836-1.386054890055675,10.086938309486868-4.157499556858966,2.703185479927924-2.772114936029539,4.054778219891887-6.222057673389827,4.054778219891887-10.351168750534271Zm6.641728704051275,0c0,5.786841552581791-2.024687409368198,10.712722283315088-6.071355371614118,14.772903904357008-4.049374818740034,4.062213052390689-8.980658950624274,6.092309018828928-14.793857551570909,6.092309018828928-5.759814234990699,0-10.64649968370577-2.021985708793181-14.651265507440257-6.071355371615027-4.006797255084166-4.047348543306725-6.010536173158471-8.980658950623365-6.010536173158471-14.793857551570909,0-5.815230032296313,1.982785270860404-10.691103522791309,5.947685543351326-14.629641591000109,3.967601973066849-3.941244924701095,8.872529056585336-5.91051653676368,14.714116137247402-5.91051653676368,5.89497144661982,0,10.847204069799773,1.976706444563206,14.854676750028375,5.928763327485285,4.006797255084166,3.954758583497096,6.010536173156652,8.822521816347944,6.010536173156652,14.611394800278504Z"/><path class="cls-3" d="m355.021331399077098,54.114397620429372c0-4.239272402531242-1.208990383998753-7.647313001381008-3.624970656152072-10.229530353618429-2.420703092242547-2.581541927093895-5.572608039938132-3.872315468598572-9.455735466757687-3.872315468598572-3.941244924701095,0-7.085055082505278,1.243468001843212-9.434792131378344,3.72972342446883-2.351778792057303,2.486930847769145-3.526307025964343,5.863205841184936-3.526307025964343,10.126809016649531,0,4.32104009228533,1.256301079578407,7.858834501613273,3.769594131630583,10.617435778846811,2.512602159156813,2.758601277232628,5.686141335128923,4.136551065561434,9.516554665216972,4.136551065561434,3.721613166822863,0,6.778917347030074-1.343487638235274,9.167859989756835-4.033829728593446,2.391644343300868-2.689671821131014,3.587796493648057-6.182186966228073,3.587796493648057-10.47484373471616Zm6.765398532317704-.081772845672276c0,6.140284827717551-1.752331242927539,11.17969885363982-5.255663502162861,15.120943778340916-3.505353378748623,3.938543224126079-7.987918042863384,5.907814836188663-13.449704800024847,5.907814836188663-3.23367779336877,0-6.058511982046184-.657554735177655-8.476513373712805-1.977381869707642-.189892427873929-.102721336967988-.37506203565863-.208144374512813-.556849361806599-.318975969125859-2.2308106643668-1.34618933881211-5.068472774863039.237203123454492-5.068472774863039,2.843075823480831v16.530648860270048c0,1.844931514570817-1.496896796503279,3.341817999240448-3.342488268466695,3.341817999240448-1.844931514569907,0-3.339116298664521-1.496886484669631-3.339116298664521-3.341817999240448v-53.958281405076377c0-1.845601783797974,1.494184784094614-3.341812843323169,3.339116298664521-3.341812843323169,1.845591471963417,0,3.342488268466695,1.496211059525194,3.342488268466695,3.341812843323169v2.565996836948216c1.411731357360622-2.280812748687822,3.315450639040137-4.033824572676167,5.707094982342824-5.256344083222757,2.388942642724942-1.221838929485784,5.134705686306916-1.834109244516185,8.231205148531444-1.834109244516185,5.54355960283101,0,10.07341433885631,1.89493359889093,13.589584831743196,5.686151646961662,3.521573894038738,3.790542622927205,5.279318849952688,8.687364604718823,5.279318849952688,14.690460789458484Z"/><path class="cls-3" d="m399.542129284032853,73.799668596722768h-.359532413265697c-1.744896410426009,0-3.162041480773041-1.41782049549056-3.162041480773041-3.162727217751126v-20.107643707532588c0-3.777023808213926-.671073549890934-6.549143900159834-2.017252576868486-8.314999113717931-1.343487638236184-1.766530638701624-3.484410043371099-2.647769682620492-6.420065514827002-2.647769682620492-3.339116298664521,0-5.889573201384337,1.317125433954061-7.63920274373595,3.951381457778552-1.753022135822903,2.637633149543944-2.629528047817075,6.494403527997747-2.629528047817075,11.575714536512351v15.543316509580109c0,1.744906722260566-1.417815339573281,3.162727217751126-3.162722061833847,3.162727217751126h-.318975969124949c-1.744906722262385,0-3.160030673092479-1.41782049549056-3.160030673092479-3.162727217751126V8.086576717727439c0-1.747608422837402,1.415123950830093-3.162722061834756,3.160030673092479-3.162722061834756h.318975969124949c1.744906722260566,0,3.162722061833847,1.415113638997354,3.162722061833847,3.162722061834756v24.65035214496038c0,2.481527446618202,2.663309616849801,3.896641085615556,4.827887369772725,2.684938689206319.021623916440149-.010811958220074.042577563654049-.023650191872548.060819198457466-.034462150092622,2.09362202138982-1.153584898526788,4.646100043624756-1.731393063464566,7.663538672586583-1.731393063464566,3.993948709598044,0,7.133025735476622,1.317125433953152,9.413838484166263,3.951381457777643,2.283514449263748,2.637633149543944,3.423590844911814,6.332889268002873,3.423590844911814,11.08508777431507v21.941758107966052c0,1.747608422836493-1.417155382181591,3.162727217751126-3.162051792607599,3.162727217751126v.002701700575926Z"/><path class="cls-5" d="m425.420388872940748,10.91613888241227c0,1.625970025920651-.591321823734688,3.0228368741964-1.776667171778172,4.186558305799736-1.185345348043484,1.167103713240067-2.592353885313059,1.750315279329698-4.216282168050384,1.750315279329698-1.625970025919742,0-3.022171760887431-.583211566089631-4.189265162292941-1.750315279329698-1.166433444013819-1.163721431603335-1.750310123412419-2.560588279879084-1.750310123412419-4.186558305799736,0-1.625964870003372.5838766793986-3.030271706697931,1.750310123412419-4.215617054741415,1.167093401405509-1.185345348043484,2.563295136373199-1.776667171778172,4.189265162292941-1.776667171778172,1.626629983313251,0,3.0309368200069.591321823734688,4.216282168050384,1.776667171778172,1.182643647467557,1.182643647467557,1.776667171778172,2.589652184738043,1.776667171778172,4.215617054741415Z"/><path class="cls-3" d="m419.453796581477945,34.838655985804508c1.845591471963417,0,3.342477956632138,1.496211059525194,3.342477956632138,3.341812843323169v32.277386924271923c0,1.844926358653538-1.496886484668721,3.341812843323169-3.342477956632138,3.341812843323169-1.844931514571726,0-3.341817999240448-1.496886484669631-3.341817999240448-3.341812843323169v-32.277386924271923c0-1.845601783797974,1.496886484668721-3.341812843323169,3.341817999240448-3.341812843323169Z"/><path class="cls-3" d="m464.978131864661918,53.871785939905749c0-4.266304876039612-1.177240246317524-7.642579869455403-3.526977295190591-10.129510717224548-2.349737048873067-2.486255422625618-5.480038703797618-3.727021723893813-9.392224879558853-3.727021723893813-3.888530827971408,0-7.045849488653403,1.288071840929661-9.477359383199655,3.869613768023555-2.431509894544433,2.582217352237421-3.647955734713832,5.992959651663114-3.647955734713832,10.229530353618429,0,4.295358469064013,1.195492192955498,7.785171913585145,3.587136536256367,10.47484373471616,2.388942642724942,2.690342090358172,5.461786757159643,4.033829728593446,9.210427241576326,4.033829728593446,3.804056281724115,0,6.96137494240611-1.377949788328806,9.477359383199655-4.136551065561434,2.509921082250003-2.758601277233538,3.769594131630583-6.296395686561482,3.769594131630583-10.617435778846811v.002701700575017Zm5.054964271983408,19.927882656817019h-3.428994246063667c-.897459559208073,0-1.625970025919742-.728510466712578-1.625970025919742-1.628666570579298,0-1.420527351982855-1.697596026682731-2.164577752923833-2.724799084533515-1.185350503960763-.854892307388582.818388414111723-1.815872765630047,1.517840131882622-2.87957971675678,2.101051697972252-2.405152846180499,1.317125433954061-5.237421867359444,1.977381869707642-8.497467020926706,1.977381869707642-5.435429708795709,0-9.905135515589791-1.969271612062585-13.407797505597046-5.91051653676459-3.50602364797669-3.938543224125169-5.259035471965035-8.980658950623365-5.259035471965035-15.120943778340916,0-6.003096184739661,1.761116925716124-10.899918166531279,5.279989119178936-14.690460789458484,3.516170492886886-3.791218048070732,8.033186995258802-5.686151646961662,13.550389549725878-5.686151646961662,3.122856510590282,0,5.88145778782382.612270315030401,8.273102131124688,1.834109244516185,2.388942642726761,1.22251951054659,4.279143109692086,2.975531334534935,5.66519799974958,5.256344083222757v-4.279143109692086c0-.900156103866721.728510466711668-1.628666570579298,1.625970025919742-1.628666570579298h3.428994246063667c.897459559208073,0,1.628671726495668.728510466712578,1.628671726495668,1.628666570579298v35.703679469759663c0,.900156103866721-.731212167287595,1.628666570579298-1.628671726495668,1.628666570579298Z"/></g></g><path class="cls-4" d="m241.840566863394997,118.772259661227508h1.5517578125l-10.83056640625,22.7509765625h-1.78271484375l-2.873046875-22.7509765625h1.5849609375l2.54248046875,20.70361328125,9.80712890625-20.70361328125Z"/><path class="cls-4" d="m243.126211394644997,141.523236223727508l2.7080078125-15.42041015625h1.45263671875l-2.70751953125,15.42041015625h-1.453125Zm3.203125-21.099609375c.09912109375-.693359375.759765625-1.18896484375,1.453125-1.18896484375.72607421875,0,1.2216796875.49560546875,1.08935546875,1.18896484375-.09912109375.66015625-.75927734375,1.1552734375-1.48583984375,1.1552734375-.693359375,0-1.1884765625-.4951171875-1.056640625-1.1552734375Z"/><path class="cls-4" d="m267.824453582144997,117.715619036227508h1.453125l-4.1943359375,23.8076171875h-1.4521484375l.59375-3.43408203125c-1.68359375,2.3115234375-4.490234375,3.83056640625-7.330078125,3.83056640625-4.3916015625,0-7.33056640625-3.56640625-6.5380859375-8.123046875.8251953125-4.556640625,4.98583984375-8.08984375,9.3779296875-8.08984375,2.8720703125,0,5.150390625,1.5517578125,6.009765625,3.86328125l2.080078125-11.8544921875Zm-8.2548828125,9.4111328125c-3.6328125,0-7.099609375,2.9716796875-7.76025390625,6.669921875-.62744140625,3.6982421875,1.783203125,6.703125,5.38232421875,6.703125,3.599609375,0,7.099609375-2.77392578125,7.79296875-6.5712890625.693359375-4.0283203125-1.8818359375-6.8017578125-5.4150390625-6.8017578125Z"/><path class="cls-4" d="m286.280508269644997,133.763470598727508c0,.1982421875-.06640625.42919921875-.099609375.62744140625h-13.8681640625c-.36328125,3.7314453125,1.75,6.10888671875,5.25,6.10888671875,2.3115234375,0,4.556640625-1.15576171875,6.009765625-3.0048828125l1.123046875.62744140625c-1.783203125,2.37744140625-4.5576171875,3.79736328125-7.396484375,3.79736328125-4.326171875,0-7.2314453125-3.26904296875-6.373046875-8.15625.8583984375-4.85400390625,4.88671875-8.056640625,9.2119140625-8.056640625,4.3916015625,0,7.0009765625,3.20263671875,6.142578125,8.056640625Zm-1.3212890625-.62744140625c.396484375-3.6650390625-1.6513671875-6.00927734375-5.0517578125-6.00927734375-3.4345703125,0-6.373046875,2.2451171875-7.36328125,6.00927734375h12.4150390625Z"/><path class="cls-4" d="m289.548086394644997,133.763470598727508c.8916015625-4.88671875,5.0517578125-8.056640625,9.4765625-8.056640625,4.3916015625,0,7.5283203125,3.169921875,6.63671875,8.056640625-.8583984375,4.919921875-5.0849609375,8.15625-9.4765625,8.15625-4.4248046875,0-7.4951171875-3.236328125-6.63671875-8.15625Zm14.6611328125,0c.7255859375-3.9951171875-1.81640625-6.63671875-5.416015625-6.63671875-3.6318359375,0-7.06640625,2.6416015625-7.79296875,6.63671875-.693359375,4.0615234375,1.783203125,6.736328125,5.416015625,6.736328125,3.6318359375,0,7.0986328125-2.6748046875,7.79296875-6.736328125Z"/><path class="cls-4" d="m318.701406707144997,130.197552629977508c1.15625-6.47216796875,7.06640625-11.8212890625,13.373046875-11.8212890625,3.0048828125,0,5.5146484375,1.1884765625,7.1328125,3.10400390625l-1.1884765625.990234375c-1.453125-1.61767578125-3.6328125-2.67431640625-6.2080078125-2.67431640625-5.4814453125,0-10.6328125,4.7548828125-11.623046875,10.4013671875-.9912109375,5.61328125,2.4765625,10.30224609375,7.990234375,10.30224609375,2.576171875,0,5.052734375-1.02392578125,7.099609375-2.6416015625l.8583984375.990234375c-2.3115234375,1.91552734375-5.216796875,3.0712890625-8.2216796875,3.0712890625-6.306640625,0-10.3349609375-5.283203125-9.212890625-11.72216796875Z"/><path class="cls-4" d="m353.766836394644997,126.102826067477508h1.453125l-2.7080078125,15.42041015625h-1.453125l.5615234375-3.10400390625c-1.353515625,2.509765625-4.0615234375,3.50048828125-6.1748046875,3.50048828125-3.6318359375,0-5.8447265625-2.57568359375-5.0849609375-6.76953125l1.5517578125-9.04736328125h1.453125l-1.5517578125,9.0146484375c-.5947265625,3.3017578125,1.1552734375,5.38232421875,3.9619140625,5.38232421875,2.7080078125,0,5.646484375-1.5849609375,6.47265625-5.6796875l1.5185546875-8.71728515625Z"/><path class="cls-4" d="m369.779531707144997,126.070111223727508l-.5615234375,1.38671875c-.7265625-.26416015625-1.38671875-.330078125-1.9150390625-.330078125-4.16015625,0-6.009765625,4.853515625-6.703125,8.419921875l-1.056640625,5.9765625h-1.453125l2.7080078125-15.42041015625h1.453125l-.693359375,4.12744140625c1.1552734375-2.5751953125,3.3017578125-4.5234375,6.0087890625-4.5234375.693359375,0,1.51953125.0986328125,2.212890625.36328125Z"/><path class="cls-4" d="m381.797109832144997,126.070111223727508l-.5615234375,1.38671875c-.7265625-.26416015625-1.38671875-.330078125-1.9150390625-.330078125-4.16015625,0-6.009765625,4.853515625-6.703125,8.419921875l-1.056640625,5.9765625h-1.453125l2.7080078125-15.42041015625h1.453125l-.693359375,4.12744140625c1.1552734375-2.5751953125,3.3017578125-4.5234375,6.0087890625-4.5234375.693359375,0,1.51953125.0986328125,2.212890625.36328125Z"/><path class="cls-4" d="m382.126211394644997,141.523236223727508l2.7080078125-15.42041015625h1.453125l-2.7080078125,15.42041015625h-1.453125Zm3.203125-21.099609375c.0986328125-.693359375.759765625-1.18896484375,1.453125-1.18896484375.7265625,0,1.2216796875.49560546875,1.08984375,1.18896484375-.099609375.66015625-.759765625,1.1552734375-1.486328125,1.1552734375-.693359375,0-1.1884765625-.4951171875-1.056640625-1.1552734375Z"/><path class="cls-4" d="m389.389883269644997,133.763470598727508c.8583984375-4.85400390625,5.0849609375-8.056640625,9.509765625-8.056640625,1.9814453125,0,3.7314453125.72607421875,4.919921875,1.84912109375l-1.08984375,1.056640625c-.990234375-.8916015625-2.41015625-1.48583984375-4.0615234375-1.48583984375-3.6650390625,0-7.1318359375,2.6416015625-7.826171875,6.63671875-.693359375,4.0283203125,1.81640625,6.736328125,5.4814453125,6.736328125,1.6181640625,0,3.236328125-.5615234375,4.58984375-1.486328125l.7265625,1.056640625c-1.6181640625,1.15576171875-3.56640625,1.849609375-5.580078125,1.849609375-4.4248046875,0-7.5283203125-3.26904296875-6.669921875-8.15625Z"/><path class="cls-4" d="m419.799062957144997,126.102826067477508h1.453125l-2.7080078125,15.42041015625h-1.453125l.5615234375-3.10400390625c-1.353515625,2.509765625-4.0615234375,3.50048828125-6.1748046875,3.50048828125-3.6318359375,0-5.8447265625-2.57568359375-5.0849609375-6.76953125l1.5517578125-9.04736328125h1.453125l-1.5517578125,9.0146484375c-.5947265625,3.3017578125,1.1552734375,5.38232421875,3.9619140625,5.38232421875,2.7080078125,0,5.646484375-1.5849609375,6.4716796875-5.6796875l1.51953125-8.71728515625Z"/><path class="cls-4" d="m424.122305144644997,141.523236223727508l4.193359375-23.8076171875h1.453125l-4.193359375,23.8076171875h-1.453125Z"/><path class="cls-4" d="m445.452383269644997,126.102826067477508h1.453125l-2.7080078125,15.42041015625h-1.453125l.5615234375-3.10400390625c-1.353515625,2.509765625-4.0615234375,3.50048828125-6.1748046875,3.50048828125-3.6318359375,0-5.8447265625-2.57568359375-5.0849609375-6.76953125l1.5517578125-9.04736328125h1.453125l-1.5517578125,9.0146484375c-.5947265625,3.3017578125,1.1552734375,5.38232421875,3.9619140625,5.38232421875,2.7080078125,0,5.646484375-1.5849609375,6.47265625-5.6796875l1.5185546875-8.71728515625Z"/><path class="cls-4" d="m476.224844207144997,132.475872942477508l-1.5849609375,9.04736328125h-1.453125l1.5517578125-8.9814453125c.5947265625-3.3017578125-1.1220703125-5.4150390625-3.9287109375-5.4150390625-3.0048828125,0-5.646484375,1.75-6.4716796875,6.40576171875l-1.419921875,7.99072265625h-1.453125l1.5849609375-9.0146484375c.5947265625-3.3017578125-1.123046875-5.3818359375-3.896484375-5.3818359375-2.740234375,0-5.580078125,1.61767578125-6.373046875,5.71240234375l-1.5517578125,8.68408203125h-1.453125l2.7080078125-15.42041015625h1.453125l-.5615234375,3.169921875c1.2548828125-2.50927734375,3.830078125-3.56591796875,6.1748046875-3.56591796875,2.70703125,0,4.6220703125,1.48583984375,4.9853515625,4.16015625,1.552734375-3.3349609375,4.58984375-4.16015625,6.6376953125-4.16015625,3.6318359375,0,5.8115234375,2.5751953125,5.0517578125,6.76904296875Z"/></svg>