<?xml version="1.0" encoding="utf-8"?>
<!-- Generator: Adobe Illustrator 27.4.0, SVG Export Plug-In . SVG Version: 6.00 Build 0)  -->
<svg version="1.1" id="Ebene_1" xmlns="http://www.w3.org/2000/svg" xmlns:xlink="http://www.w3.org/1999/xlink" x="0px" y="0px"
	 viewBox="0 0 700 700" style="enable-background:new 0 0 700 700;" xml:space="preserve">
<g>
	<path d="M542.6,33.8c-14.7,1.7-29.4,3.3-44.1,5c-0.6,0-1.1-0.1-1.7-0.1c-56.1,1.5-111.5,7.9-166.5,19.2c-13.5,2.8-10.7,26,3.3,24.4
		c41.3-4.6,82.7-9.2,124-13.7c-81.8,71.1-160.8,145.6-213.8,241.8C183,420.9,167.9,549.7,211,669.2c2,5.5,10.5,3.3,8.8-2.4
		C185.1,544,202.5,417.4,268,308.1C325.5,212.3,411,131,499.7,64h0c-25.6,25.9-42.5,59.1-47.8,96.4c-2.3,16.3,22.6,23.3,24.9,6.9
		c6.5-46.8,31.4-85.5,72.2-109.8C559.1,51.5,555.7,32.3,542.6,33.8L542.6,33.8z"/>
</g>
</svg>
