<?xml version="1.0" encoding="utf-8"?>
<!-- Generator: Adobe Illustrator 27.4.0, SVG Export Plug-In . SVG Version: 6.00 Build 0)  -->
<svg version="1.1" id="Ebene_1" xmlns="http://www.w3.org/2000/svg" xmlns:xlink="http://www.w3.org/1999/xlink" x="0px" y="0px"
	 viewBox="0 0 700 700" style="enable-background:new 0 0 700 700;" xml:space="preserve">
<path d="M450.6,104.8H256.4c-116.3,0-210.9,94.6-210.9,210.9c0,15.4,12.4,27.8,27.8,27.8c15.4,0,27.8-12.4,27.8-27.8
	c0-85.6,69.6-155.3,155.3-155.3h194.2c85.6,0,155.3,69.6,155.3,155.3s-69.6,155.3-155.3,155.3H325.3v-40.9c0-9.9-5.3-19.1-13.9-24.1
	c-8.6-5-19.2-5-27.8,0l-119,68.7c-8.6,5-13.9,14.1-13.9,24.1c0,9.9,5.3,19.1,13.9,24.1l119,68.7c4.3,2.5,9.1,3.7,13.9,3.7
	c4.8,0,9.6-1.2,13.9-3.7c8.6-5,13.9-14.1,13.9-24.1l0-40.9h125.3c116.3,0,210.9-94.6,210.9-210.9
	C661.5,199.4,566.9,104.8,450.6,104.8L450.6,104.8z"/>
</svg>
