<?xml version="1.0" encoding="utf-8"?>
<!-- Generator: Adobe Illustrator 27.4.0, SVG Export Plug-In . SVG Version: 6.00 Build 0)  -->
<svg version="1.1" id="Ebene_1" xmlns="http://www.w3.org/2000/svg" xmlns:xlink="http://www.w3.org/1999/xlink" x="0px" y="0px"
	 viewBox="0 0 700 700" style="enable-background:new 0 0 700 700;" xml:space="preserve">
<g>
	<path d="M627.2,352.5c0,0.8-0.1,1.6-0.4,2.4c-1.3,4.1-5.8,6.4-9.9,5.1c-29.8-9.5-73.3-41.1-93.3-59.4c-18-16.5-54.8-29.5-56.7-30.1
		l-56.6-18.1c-5.3-1.7-10.9-1.2-15.7,1.3c-4.9,2.5-8.5,6.8-10.2,12.1c-3.5,10.9,2.5,22.5,13.4,26l20.3,6.5c0.5,0.2,1,0.3,1.4,0.6
		c3.2,1.8,4.9,5.7,3.7,9.3c-1.3,4.1-5.8,6.4-9.9,5.1l-36.8-11.8c-5.3-1.7-10.9-1.2-15.7,1.3c-4.9,2.5-8.5,6.8-10.2,12.1
		c-3.4,10.8,2.5,22.3,13.1,25.9l12.3,3.9h0.2l12.3,4c4.1,1.3,6.4,5.8,5.1,9.9c-1.3,4.1-5.8,6.4-9.9,5.1l-24.5-7.8l-0.3-0.1
		l-21.2-6.8c-5.3-1.7-10.9-1.2-15.7,1.3c-4.9,2.5-8.5,6.8-10.2,12.1c-1.7,5.3-1.2,10.9,1.3,15.7s6.8,8.5,12,10.2l36.7,11.8
		c4.1,1.3,6.4,5.8,5.1,9.9c-1.3,4.1-5.8,6.4-9.9,5.1l-3.1-1l-33.7-10.8L215.9,370c-5.3-1.7-10.9-1.2-15.7,1.3
		c-4.9,2.5-8.5,6.8-10.2,12.1c-1.7,5.3-1.2,10.9,1.3,15.7c2.5,4.9,6.8,8.5,12.1,10.2l198.5,63.4c3.4,1.1,5.6,4.3,5.5,7.7
		c-0.1,3.5-2.5,6.6-5.9,7.4l-60.3,15.5c-5.4,1.4-9.9,5.1-12.2,10.2c-2.3,5.1-2.1,10.9,0.4,15.9c3.7,7.2,11.6,11.1,19.7,9.6
		c24.9-4.5,66.8-6.4,79.9-4.5c14.2,2.1,43.3-2.5,53.6-4.4l48-12.4c23.7-6.2,48.8-6.1,72.5,0.1l18.3,4.8c4.2,1.1,6.7,5.4,5.7,9.6
		c-1.1,4.2-5.4,6.7-9.6,5.7l-18.3-4.8c-21.1-5.5-43.3-5.6-64.5-0.1l-48.3,12.5c0,0-0.3,0.1-0.5,0.1c-1.6,0.3-39.3,7.5-59.1,4.6
		c-10.6-1.5-49.9-0.1-74.7,4.5c-15,2.7-29.7-4.5-36.6-18c-4.8-9.3-5-20-0.8-29.6c4.3-9.5,12.5-16.5,22.6-19l33.7-8.7l-172.4-55.1
		c-9.3-3-16.9-9.4-21.3-18c-4.5-8.7-5.3-18.5-2.3-27.8s9.4-16.9,18-21.3c8.7-4.5,18.5-5.3,27.8-2.3l75.7,24.2
		c-2.1-7-2.1-14.5,0.2-21.6c3-9.3,9.4-16.9,18-21.3c6.6-3.4,13.8-4.6,20.9-3.8c-2.3-7.1-2.5-14.8-0.1-22.4c3-9.3,9.4-16.9,18-21.3
		c5.2-2.7,10.8-4,16.5-4.1c-2.7-7.4-3.1-15.7-0.6-23.7c3-9.3,9.4-16.9,18-21.3c8.7-4.5,18.5-5.3,27.8-2.3l56.6,18.1h0.2
		c1.7,0.6,41.5,14.5,62.3,33.5c19.7,18.1,61.1,47.6,87.4,56.1c3.4,1.1,5.5,4.2,5.5,7.5L627.2,352.5z M255.5,334.9
		c0,1.5-0.4,3.1-1.3,4.4c-2.5,3.6-7.3,4.6-11,2.1c-9.9-6.7-21.4-10.2-33.4-10.2c-32.9,0-59.6,26.8-59.6,59.6s26.8,59.6,59.6,59.6
		c4.5,0,8.9-0.5,13.2-1.5c4.3-1,8.5,1.7,9.5,5.9c1,4.3-1.7,8.5-5.9,9.5c-5.4,1.2-11.1,1.8-16.7,1.8c-41.6,0-75.4-33.8-75.4-75.4
		s33.8-75.4,75.4-75.4c15.1,0,29.7,4.5,42.2,12.9C254.2,329.8,255.4,332.4,255.5,334.9L255.5,334.9z M239.3,221c0,1-0.2,2-0.6,3
		c-1.2,3-4.1,4.9-7.3,4.9h-37.1v63.3c0,4.4-3.5,7.9-7.9,7.9s-7.9-3.5-7.9-7.9v-63.3l-34.2,0c-3.2,0-6-1.9-7.3-4.9
		c-1.2-3-0.6-6.3,1.7-8.6l43.6-43.6v-0.1h0.1c1.5-1.5,3.4-2.2,5.4-2.2h0.3c2,0,3.9,0.8,5.4,2.2v0.1h0.1l43.6,43.6
		c1.5,1.5,2.3,3.5,2.3,5.6L239.3,221z M187.8,213.2c0.4-0.1,1-0.1,1.4-0.1h23.1l-24.5-24.5l-24.5,24.5h23.1
		C186.9,213.1,187.3,213.1,187.8,213.2L187.8,213.2z"/>
</g>
</svg>
