<?xml version="1.0" encoding="utf-8"?>
<!-- Generator: Adobe Illustrator 27.3.1, SVG Export Plug-In . SVG Version: 6.00 Build 0)  -->
<svg version="1.1" id="Ebene_1" xmlns="http://www.w3.org/2000/svg" xmlns:xlink="http://www.w3.org/1999/xlink" x="0px" y="0px"
	 viewBox="0 0 700 700" style="enable-background:new 0 0 700 700;" xml:space="preserve">
<g>
	<path d="M529.4,284.8c-16.9-12.2-43.9-6.5-64.2,13.6h0c-12.7,13.3-24.4,27.4-35.2,42.2V191c-0.1-8.4-3.2-16.5-8.7-22.9
		c-5.5-6.4-13.1-10.6-21.4-11.9c-8.3-1.3-16.8,0.3-24,4.7v-15.3c0-13.3-7.1-25.7-18.7-32.3c-11.6-6.7-25.8-6.7-37.3,0
		c-11.6,6.7-18.7,19-18.7,32.3v0.4c-5.5-3.5-11.8-5.4-18.3-5.4c-9.7,0.2-18.9,4.3-25.6,11.3c-6.7,7-10.4,16.4-10.2,26.1v45.7
		c-4.3-2.3-9-3.5-13.9-3.5h-5.7c-8.5,0.2-16.5,3.7-22.4,9.8c-5.9,6.1-9.1,14.3-9,22.8l0,203.9c0,35.8,14.3,70.2,39.6,95.5
		c25.3,25.3,59.7,39.6,95.5,39.6c38.4-0.1,75.3-14.7,103.5-40.7c28.2-26,45.6-61.7,48.8-99.9c6.1-41.4,20.3-81.1,41.9-117l2.4-3.9
		C534.8,319,547.8,298.1,529.4,284.8L529.4,284.8z M513,321.1c-0.9,1.4-1.8,2.8-2.5,4.2c-23.1,38-38.1,80.3-44.3,124.4
		c-2.8,33.9-18.2,65.5-43.2,88.5c-25,23.1-57.7,35.9-91.7,36.1c-31.2,0-61.1-12.4-83.1-34.5c-22-22-34.4-51.9-34.5-83.1l0-203.9
		c-0.1-3.8,1.2-7.6,3.8-10.4c2.6-2.8,6.2-4.5,10-4.7h5.7c3.8,0.2,7.4,1.8,10,4.7c2.6,2.8,4,6.6,3.8,10.4v108.7
		c0,4.8,3.9,8.8,8.8,8.8c4.8,0,8.8-3.9,8.8-8.8V178c-0.4-5.1,1.3-10.2,4.8-13.9c3.5-3.8,8.4-5.9,13.5-5.9s10,2.1,13.5,5.9
		c3.5,3.8,5.2,8.8,4.8,13.9v161.4c0,4.8,3.9,8.8,8.8,8.8s8.8-3.9,8.8-8.8V145.6c0-7.1,3.8-13.6,9.9-17.2c6.1-3.5,13.7-3.5,19.8,0
		c6.1,3.5,9.9,10.1,9.9,17.2v189.2c0,4.8,3.9,8.8,8.8,8.8s8.8-3.9,8.8-8.8V191c0.2-6.4,3.7-12.2,9.3-15.3c5.6-3.1,12.4-3.1,17.9,0
		c5.6,3.1,9.1,9,9.3,15.3v176.8c0,3.8,2.5,7.2,6.2,8.4c3.7,1.1,7.6-0.2,9.8-3.4c14.9-21.8,31.2-42.4,49-61.9
		c15.4-15.2,33.3-18,41.7-11.9C523.1,301.9,521.7,307,513,321.1L513,321.1z"/>
</g>
</svg>
