<?xml version="1.0" encoding="utf-8"?>
<!-- Generator: Adobe Illustrator 27.3.1, SVG Export Plug-In . SVG Version: 6.00 Build 0)  -->
<svg version="1.1" id="Ebene_1" xmlns="http://www.w3.org/2000/svg" xmlns:xlink="http://www.w3.org/1999/xlink" x="0px" y="0px"
	 viewBox="0 0 700 700" style="enable-background:new 0 0 700 700;" xml:space="preserve">
<g>
	<path d="M129.3,527h207.2c3.4,0,5.6-2.2,5.6-5.6l0-109.2c0-3.4-2.2-5.6-5.6-5.6h-17.4c-3.9-10.1-14-16.8-25.2-16.8h-16.8
		c-11.2,0-20.7,6.7-25.2,16.8h-38.1c-1.7-3.9-4.5-7.8-7.8-10.1l147.3-118.2v243.6c0,3.4,2.2,5.6,5.6,5.6h207.2
		c3.4,0,5.6-2.2,5.6-5.6l0-328.2c0-3.4-2.2-5.6-5.6-5.6h-17.4c-3.9-10.1-14-16.8-25.2-16.8h-16.8c-11.2,0-20.7,6.7-25.2,16.8h-38.1
		c-3.9-10.1-14-16.8-25.2-16.8h-16.8c-11.2,0-20.7,6.7-25.2,16.8h-17.4c-3.4,0-5.6,2.2-5.6,5.6v56.6l-58.2-72.8
		c-1.1-1.1-2.2-1.7-3.9-2.2c-1.7,0-2.8,0-3.9,1.1L273.8,187c-9.5-5-21.3-4.5-30.2,2.8l-12.9,10.6c-9,6.7-12.3,18.5-9,29.1
		l-29.7,24.1c-9.5-5-21.3-4.5-30.2,2.8L149,267.1c-9,6.7-12.3,18.5-9,29.1l-13.4,11.2c-2.2,1.7-2.8,5.6-1.1,7.8l60.5,75.6h-13.4
		c-11.2,0-20.7,6.7-25.2,16.8h-17.4c-3.4,0-5.6,2.2-5.6,5.6v109.2C123.7,524.7,126.5,527,129.3,527L129.3,527z M561.7,406.6h-196
		v-98h196V406.6z M561.7,515.8h-196v-98h196V515.8z M365.1,199.4h16.2c2.8,0,5-1.7,5.6-4.5c1.7-7.3,8.4-12.3,15.7-12.3h16.8
		c7.3,0,14,5,15.7,12.3c0.6,2.8,2.8,4.5,5.6,4.5h46.5c2.8,0,5-1.7,5.6-4.5c1.7-7.3,8.4-12.3,15.7-12.3h16.8c7.3,0,14,5,15.7,12.3
		c0.6,2.8,2.8,4.5,5.6,4.5h15.7v98h-196l0-98H365.1z M150.1,301.8c2.2-1.7,2.8-4.5,1.7-6.7c-3.4-6.7-1.1-15.1,4.5-19.6l12.9-10.6
		c5.6-4.5,14-4.5,20.2,0c2.2,1.7,5,1.7,6.7,0l36.4-29.1c2.2-1.7,2.8-4.5,1.7-6.7c-3.4-6.7-1.1-15.1,4.5-19.6l12.9-10.6
		c5.6-4.5,14-4.5,20.2,0c2.2,1.7,5,1.7,6.7,0l12.3-10.1l61.6,76.7L198.8,388.6l-61.6-76.7L150.1,301.8z M134.9,417.8h16.2
		c2.8,0,5-1.7,5.6-4.5c1.7-7.3,8.4-12.3,15.7-12.3h16.8c7.3,0,14,5,15.7,12.3c0.6,2.8,2.8,4.5,5.6,4.5H257c2.8,0,5-1.7,5.6-4.5
		c1.7-7.3,8.4-12.3,15.7-12.3h16.8c7.3,0,14,5,15.7,12.3c0.6,2.8,2.8,4.5,5.6,4.5h15.7v98h-196l0-98H134.9z"/>
</g>
</svg>
