<?xml version="1.0" encoding="iso-8859-1"?>
<!-- Uploaded to: SVG Repo, www.svgrepo.com, Generator: SVG Repo Mixer Tools -->
<svg fill="#000000" height="800px" width="800px" version="1.1" id="Layer_1" xmlns="http://www.w3.org/2000/svg" xmlns:xlink="http://www.w3.org/1999/xlink" 
	 viewBox="0 0 512 512" xml:space="preserve">
<g>
	<g>
		<path d="M503.83,174.298H392.17c-4.513,0-8.17,3.657-8.17,8.17s3.657,8.17,8.17,8.17H495.66v49.021H392.17
			c-4.513,0-8.17,3.657-8.17,8.17c0,4.513,3.657,8.17,8.17,8.17H495.66v174.298H392.17c-4.513,0-8.17,3.657-8.17,8.17
			s3.657,8.17,8.17,8.17H495.66v49.021h-128V157.484c0.899,0.318,1.817,0.476,2.722,0.476c3.291,0,6.395-2.004,7.636-5.264
			c1.607-4.217-0.51-8.937-4.727-10.544l-109.121-41.57V27.234h49.021v27.234h-24.511c-4.513,0-8.17,3.657-8.17,8.17
			s3.657,8.17,8.17,8.17h32.681c4.513,0,8.17-3.657,8.17-8.17V19.064c0-4.513-3.657-8.17-8.17-8.17H264.17V8.17
			c0-4.513-3.657-8.17-8.17-8.17c-4.513,0-8.17,3.657-8.17,8.17v92.412l-109.121,41.57c-4.217,1.607-6.332,6.327-4.727,10.544
			c1.583,4.156,6.189,6.264,10.359,4.787V495.66h-128v-49.021H119.83c4.513,0,8.17-3.657,8.17-8.17s-3.657-8.17-8.17-8.17H16.34V256
			H119.83c4.513,0,8.17-3.657,8.17-8.17c0-4.513-3.657-8.17-8.17-8.17H16.34v-49.021H119.83c4.513,0,8.17-3.657,8.17-8.17
			s-3.657-8.17-8.17-8.17H8.17c-4.513,0-8.17,3.657-8.17,8.17V503.83c0,4.513,3.657,8.17,8.17,8.17h495.66
			c4.513,0,8.17-3.657,8.17-8.17V182.468C512,177.955,508.343,174.298,503.83,174.298z M351.319,495.66H160.681v-16.34h190.638
			V495.66z M318.638,446.638v16.34H193.362v-16.34H318.638z M193.362,430.298v-81.702h54.468v81.702H193.362z M264.17,430.298
			v-81.702h54.468v81.702H264.17z M351.319,462.979h-16.34V340.426c0-4.513-3.657-8.17-8.17-8.17H185.192
			c-4.513,0-8.17,3.657-8.17,8.17v122.553h-16.34V151.268L256,114.955l95.319,36.313V462.979z"/>
	</g>
</g>
<g>
	<g>
		<path d="M55.83,356.766c-4.513,0-8.17,3.657-8.17,8.17v32.681c0,4.513,3.657,8.17,8.17,8.17c4.513,0,8.17-3.657,8.17-8.17v-32.681
			C64,360.423,60.343,356.766,55.83,356.766z"/>
	</g>
</g>
<g>
	<g>
		<path d="M104.851,356.766c-4.513,0-8.17,3.657-8.17,8.17v32.681c0,4.513,3.657,8.17,8.17,8.17s8.17-3.657,8.17-8.17v-32.681
			C113.021,360.423,109.364,356.766,104.851,356.766z"/>
	</g>
</g>
<g>
	<g>
		<path d="M55.83,280.511c-4.513,0-8.17,3.657-8.17,8.17v32.681c0,4.513,3.657,8.17,8.17,8.17c4.513,0,8.17-3.657,8.17-8.17v-32.681
			C64,284.168,60.343,280.511,55.83,280.511z"/>
	</g>
</g>
<g>
	<g>
		<path d="M104.851,280.511c-4.513,0-8.17,3.657-8.17,8.17v32.681c0,4.513,3.657,8.17,8.17,8.17s8.17-3.657,8.17-8.17v-32.681
			C113.021,284.168,109.364,280.511,104.851,280.511z"/>
	</g>
</g>
<g>
	<g>
		<path d="M456.17,356.766c-4.513,0-8.17,3.657-8.17,8.17v32.681c0,4.513,3.657,8.17,8.17,8.17s8.17-3.657,8.17-8.17v-32.681
			C464.34,360.423,460.683,356.766,456.17,356.766z"/>
	</g>
</g>
<g>
	<g>
		<path d="M407.149,356.766c-4.513,0-8.17,3.657-8.17,8.17v32.681c0,4.513,3.657,8.17,8.17,8.17s8.17-3.657,8.17-8.17v-32.681
			C415.319,360.423,411.662,356.766,407.149,356.766z"/>
	</g>
</g>
<g>
	<g>
		<path d="M456.17,280.511c-4.513,0-8.17,3.657-8.17,8.17v32.681c0,4.513,3.657,8.17,8.17,8.17s8.17-3.657,8.17-8.17v-32.681
			C464.34,284.168,460.683,280.511,456.17,280.511z"/>
	</g>
</g>
<g>
	<g>
		<path d="M407.149,280.511c-4.513,0-8.17,3.657-8.17,8.17v32.681c0,4.513,3.657,8.17,8.17,8.17s8.17-3.657,8.17-8.17v-32.681
			C415.319,284.168,411.662,280.511,407.149,280.511z"/>
	</g>
</g>
<g>
	<g>
		<path d="M256,174.298c-22.526,0-40.851,18.325-40.851,40.851S233.474,256,256,256s40.851-18.325,40.851-40.851
			S278.526,174.298,256,174.298z M256,239.66c-13.515,0-24.511-10.996-24.511-24.511c0-13.515,10.996-24.511,24.511-24.511
			c13.515,0,24.511,10.996,24.511,24.511C280.511,228.664,269.515,239.66,256,239.66z"/>
	</g>
</g>
</svg>