<?xml version="1.0" encoding="utf-8"?>
<svg id="Ebene_1" viewBox="0 0 361.021 134.361" xmlns="http://www.w3.org/2000/svg">
  <defs>
    <style>.cls-1{fill:#ff4b46;}</style>
  </defs>
  <path d="m53.964,77.279c0,8.305-2.581,14.845-7.74,19.622-5.16,4.777-12.215,7.166-21.164,7.166-6.168,0-11.56-1.411-16.175-4.233-3.435-2.1-6.172-4.802-8.211-8.107-1.224-1.984-.722-4.592,1.051-6.106h0c2.161-1.844,5.368-1.379,7.058.904,1.279,1.729,2.865,3.202,4.759,4.42,3.447,2.218,7.427,3.326,11.943,3.326,5.643,0,10.068-1.451,13.273-4.354,3.205-2.902,4.807-6.994,4.807-12.275,0-4.273-1.481-7.992-4.444-11.156-2.963-3.164-7.932-6.459-14.905-9.887-8.265-4.071-14.019-8.042-17.264-11.912-3.246-3.87-4.868-8.768-4.868-14.694,0-6.893,2.338-12.456,7.014-16.689,4.676-4.233,10.864-6.349,18.564-6.349,4.676,0,8.788.918,12.336,2.751,2.151,1.113,4.103,2.562,5.854,4.35,1.914,1.953,1.872,5.1-.128,6.964l-.013.012c-1.876,1.748-4.723,1.651-6.625-.069-.914-.827-1.951-1.545-3.109-2.156-2.6-1.37-5.533-2.056-8.798-2.056-4.556,0-8.144,1.149-10.763,3.447-2.621,2.298-3.93,5.402-3.93,9.312,0,3.548.998,6.531,2.993,8.949,1.995,2.419,5.936,5.221,11.822,8.405l.544.242c17.415,9.353,26.122,19.41,26.122,30.174Z"/>
  <path d="m126.526,73.106c0,8.587-3.004,15.893-9.01,21.92-6.007,6.027-13.323,9.04-21.95,9.04-8.546,0-15.793-3.003-21.738-9.01-5.946-6.006-8.919-13.323-8.919-21.95s2.943-15.862,8.828-21.708c5.885-5.845,13.162-8.768,21.829-8.768,8.747,0,16.094,2.933,22.041,8.798,5.946,5.865,8.919,13.091,8.919,21.678Zm-9.856,0c0-6.087-2.016-11.116-6.047-15.087-4.032-3.97-9.01-5.956-14.936-5.956-5.967,0-10.945,1.986-14.936,5.956-3.991,3.971-5.986,9-5.986,15.087,0,6.128,2.026,11.247,6.077,15.359,4.051,4.112,8.999,6.168,14.845,6.168,5.966,0,10.955-2.056,14.966-6.168,4.011-4.112,6.017-9.231,6.017-15.359Z"/>
  <path d="m197.999,72.864c0,9.111-2.599,16.589-7.799,22.434-5.2,5.846-11.852,8.768-19.955,8.768-4.798,0-8.991-.978-12.578-2.933-.28-.153-.556-.311-.826-.474-3.31-2-7.519.35-7.519,4.218v24.525c0,2.738-2.22,4.958-4.958,4.958h0c-2.738,0-4.958-2.22-4.958-4.958V49.342c0-2.738,2.22-4.958,4.958-4.958h0c2.738,0,4.958,2.22,4.958,4.958v3.81c2.096-3.386,4.918-5.986,8.466-7.8,3.547-1.814,7.62-2.721,12.215-2.721,8.224,0,14.944,2.812,20.164,8.435,5.223,5.624,7.831,12.89,7.831,21.799Zm-10.038.121c0-6.289-1.794-11.348-5.38-15.178-3.589-3.829-8.266-5.744-14.029-5.744-5.847,0-10.513,1.844-13.999,5.533-3.488,3.689-5.231,8.698-5.231,15.026,0,6.41,1.864,11.661,5.593,15.752,3.729,4.092,8.435,6.138,14.12,6.138,5.521,0,10.057-1.995,13.604-5.986,3.546-3.991,5.321-9.171,5.321-15.54Z"/>
  <path d="m254.017,102.192h-.533c-2.591,0-4.692-2.101-4.692-4.692v-29.835c0-5.603-.997-9.715-2.994-12.336-1.994-2.62-5.169-3.93-9.523-3.93-4.958,0-8.738,1.955-11.337,5.865-2.602,3.911-3.901,9.635-3.901,17.173v23.063c0,2.591-2.101,4.692-4.692,4.692h-.472c-2.591,0-4.692-2.101-4.692-4.692V4.692c0-2.591,2.101-4.692,4.692-4.692h.472c2.591,0,4.692,2.101,4.692,4.692v36.577c0,3.679,3.953,5.78,7.163,3.983.031-.017.062-.035.093-.052,3.103-1.713,6.893-2.57,11.368-2.57,5.926,0,10.582,1.955,13.968,5.865,3.386,3.911,5.079,9.393,5.079,16.447v32.556c0,2.591-2.101,4.692-4.692,4.692Z"/>
  <rect x="278.603" y="44.384" width="9.917" height="57.808" rx="4.958" ry="4.958"/>
  <path d="m358.605,102.192h-5.085c-1.334,0-2.416-1.082-2.416-2.416h0c0-2.107-2.517-3.212-4.041-1.757-1.268,1.211-2.693,2.249-4.274,3.115-3.566,1.955-7.769,2.933-12.607,2.933-8.064,0-14.694-2.922-19.894-8.768-5.2-5.845-7.8-13.323-7.8-22.434,0-8.908,2.61-16.175,7.831-21.799,5.22-5.624,11.92-8.435,20.105-8.435,4.635,0,8.727.907,12.275,2.721,3.546,1.814,6.349,4.414,8.405,7.8v-6.352c0-1.334,1.082-2.416,2.416-2.416h5.085c1.334,0,2.416,1.082,2.416,2.416v52.976c0,1.334-1.082,2.416-2.416,2.416Zm-7.501-29.569c0-6.329-1.744-11.338-5.23-15.026-3.488-3.689-8.134-5.533-13.939-5.533-5.766,0-10.451,1.915-14.06,5.744-3.607,3.83-5.411,8.889-5.411,15.178,0,6.37,1.773,11.549,5.321,15.54,3.546,3.991,8.103,5.986,13.666,5.986,5.643,0,10.33-2.045,14.06-6.138,3.728-4.091,5.593-9.342,5.593-15.752Z"/>
</svg>