<?xml version="1.0" encoding="utf-8"?>
<!-- Generator: Adobe Illustrator 27.4.0, SVG Export Plug-In . SVG Version: 6.00 Build 0)  -->
<svg version="1.1" id="Ebene_1" xmlns="http://www.w3.org/2000/svg" xmlns:xlink="http://www.w3.org/1999/xlink" x="0px" y="0px"
	 viewBox="0 0 652 570.1" style="enable-background:new 0 0 652 570.1;" xml:space="preserve">
<style type="text/css">
	.st0{fill:#3F3D56;}
	.st1{fill:#6C63FF;}
	.st2{fill:#FFB6B6;}
	.st3{fill:#2F2E41;}
	.st4{fill:#E4E4E4;}
	.st5{fill:#CACACA;}
</style>
<g>
	<path class="st0" d="M227.7,47.4h-39.2V33.7c0-10.8,8.8-19.6,19.6-19.6s19.6,8.8,19.6,19.6L227.7,47.4L227.7,47.4z M189.3,46.5
		h37.4V33.7c0-10.3-8.4-18.7-18.7-18.7s-18.7,8.4-18.7,18.7L189.3,46.5L189.3,46.5z"/>
	<polygon class="st0" points="247,45.5 247,40.2 147.4,42.8 144.2,178.1 159,196.3 	"/>
	<polygon class="st1" points="264.7,43.6 156.7,46.1 159,196.3 263.2,185.1 	"/>
	<polygon class="st2" points="356.5,530.4 344.2,530.4 338.4,483.1 356.5,483.1 	"/>
	<path class="st3" d="M359.6,542.2h-39.5v-0.5c0-8.5,6.9-15.4,15.4-15.4l0,0h24.1V542.2z"/>
	<polygon class="st2" points="311.5,530.4 299.2,530.4 293.4,483.1 311.5,483.1 	"/>
	<path class="st3" d="M314.6,542.2h-39.5v-0.5c0-8.5,6.9-15.4,15.4-15.4l0,0h24.1V542.2z"/>
	<path class="st3" d="M275.5,234.3c0,0-17.9,38.6-1.7,116.2s16.3,162.9,16.3,162.9l24.7,0.4l13.9-183.5l7.3,180.9h24.4l21.5-178.1
		c0,0,14.1-79.5-17.4-93.7L275.5,234.3z"/>
	<path class="st4" d="M361.2,98.1l-54.2-5l0,0c-17,12.4-26.5,34.6-24.6,57.6c2.7,31.1,1.8,73.9-19.5,92.5c0,0,58,45.8,109.6,2.3
		c0,0-17.6-47.2-5.5-66.1S383.5,107.6,361.2,98.1z"/>
	<path class="st2" d="M200,21.2c-0.6,5.9,3.6,11.2,9.5,11.8c0.6,0.1,1.3,0.1,1.9,0L283,99.9l12.8-19.5l-74.3-59.5
		c-0.8-5.9-6.3-10-12.2-9.2C204.4,12.3,200.5,16.3,200,21.2L200,21.2z"/>
	<path class="st4" d="M269.6,89.5l17-17.4c1.9-1.9,4.9-1.9,6.8-0.1c0.2,0.2,0.3,0.3,0.5,0.5l14.7,19.3c5.3,5.2,5.3,13.7,0.1,18.9
		c-5.2,5.2-13.6,5.3-18.9,0.2l-19.6-14.1c-2.2-1.6-2.6-4.6-1.1-6.7C269.3,89.9,269.5,89.7,269.6,89.5L269.6,89.5z"/>
	<path class="st2" d="M465.8,183.8c0.3-5.9-4.3-11-10.2-11.3c-0.6,0-1.3,0-1.9,0.1l-75.1-62.7l-11.7,20.2l77.5,55.3
		c1.1,5.9,6.8,9.7,12.7,8.5C462,193,465.6,188.8,465.8,183.8L465.8,183.8z"/>
	<path class="st4" d="M392.5,119.5l-16,18.3c-1.7,2-4.8,2.2-6.8,0.5c-0.2-0.2-0.3-0.3-0.5-0.5l-15.8-18.4
		c-5.5-4.9-6.1-13.3-1.2-18.9c4.9-5.5,13.3-6.1,18.8-1.2l20.4,13c2.2,1.4,2.9,4.4,1.5,6.7C392.8,119.1,392.6,119.3,392.5,119.5
		L392.5,119.5z"/>
	<path class="st0" d="M473.4,210.3h-29.7V200c0-8.2,6.6-14.8,14.8-14.8c8.2,0,14.8,6.6,14.8,14.8L473.4,210.3z M444.4,209.7h28.4
		V200c0-7.8-6.4-14.2-14.2-14.2c-7.8,0-14.2,6.3-14.2,14.2L444.4,209.7L444.4,209.7z"/>
	<polygon class="st0" points="488.1,208.9 488.1,204.8 412.6,206.9 410.2,309.3 421.4,323.1 	"/>
	<polygon class="st1" points="501.5,207.5 419.6,209.3 421.4,323.1 500.3,314.6 	"/>
	<path class="st3" d="M389.4,36.8c-6-16.9-20-30.7-37.2-35.3c-17.2-4.6-37,1.1-48.5,14.7c-12,14.2-14,35.1-8.7,52.9
		c5.3,17.8,16.9,33.2,29.6,46.8c-3.9-10-7-20.3-9.2-30.8h48.6c-3.1,8.3-7.6,16-13.7,22.8c6.8,2.4,14.6,0.8,20.6-3.1
		s10.5-9.9,13.9-16.2C393.3,72.9,395.4,53.7,389.4,36.8z"/>
	<path class="st2" d="M368.5,61.3c0.1-7.1-0.8-14.2-2.8-21.1c-12.2,9.6-31.4,8.5-42.5-2.3l1.1-0.4c-5.6,1.6-9.6,6.8-11.2,12.3
		c-1.6,5.5-1.2,11.5-0.6,17.2c0.2,1.8,0.5,3.6,0.7,5.5c5.9,7.1,14.8,11.6,24.7,11.6C352.4,84.1,364.6,74.5,368.5,61.3z"/>
	<path class="st5" d="M516.5,544.1h-381c-0.6,0-1-0.4-1-1s0.4-1,1-1h381c0.6,0,1,0.4,1,1S517.1,544.1,516.5,544.1z"/>
	<path class="st5" d="M457.4,457.3h-29.7V447c0-8.2,6.6-14.8,14.8-14.8c8.2,0,14.8,6.6,14.8,14.8L457.4,457.3z M428.4,456.7h28.4
		V447c0-7.8-6.4-14.2-14.2-14.2c-7.8,0-14.2,6.3-14.2,14.2L428.4,456.7L428.4,456.7z"/>
	<polygon class="st5" points="472.1,455.9 472.1,451.8 396.6,453.9 394.2,556.3 405.4,570.1 	"/>
	<polygon class="st4" points="485.5,454.5 403.6,456.3 405.4,570.1 484.3,561.6 	"/>
</g>
</svg>
